# xmcd
#
# Track frame offsets:
#	150
#	11547
#	28661
#	39461
#	53497
#	68399
#	87609
#	103747
#	119864
#	136739
#	151575
#
# Disc length: 2197 seconds
#
# Revision: 1
# Processed by: cddbd v1.5.1PL2 Copyright (c) Steve Scherf et al.
# Submitted via: EasyCDDAExtractor 8.0.1.1
#
DISCID=8408930b
DTITLE=Krausberry - Na Hrad
DYEAR=1900
DGENRE=Blues
TTITLE0=Na Hrad
TTITLE1=Ptaci
TTITLE2=Penize
TTITLE3=Nova kara
TTITLE4=Ve stinu lipy
TTITLE5=Rano vstanes
TTITLE6=Horko
TTITLE7=Vasa a Dasa
TTITLE8=Podily
TTITLE9=Tichy blazni
TTITLE10=Penize - innstrumetnal
EXTD=
EXTT0=
EXTT1=
EXTT2=
EXTT3=
EXTT4=
EXTT5=
EXTT6=
EXTT7=
EXTT8=
EXTT9=
EXTT10=
PLAYORDER=
